<svg xmlns="http://www.w3.org/2000/svg" xmlns:xlink="http://www.w3.org/1999/xlink" viewBox="0 0 34.82 34.82"><defs><style>.cls-1{fill:#fff;}.cls-2{fill:url(#linear-gradient);}.cls-3{fill:#03adad;}</style><linearGradient id="linear-gradient" x1="-605.34" y1="598.96" x2="-565.5" y2="598.96" gradientTransform="translate(-581.55 -568.52) rotate(-90)" gradientUnits="userSpaceOnUse"><stop offset="0" stop-color="#298fb7"/><stop offset="1" stop-color="#03adad"/></linearGradient></defs><title>Asset 4</title><g id="Layer_2" data-name="Layer 2"><g id="Layer_1-2" data-name="Layer 1"><polygon class="cls-1" points="15.68 18.02 20.91 14.04 15.68 10.06 15.68 18.02"/><path class="cls-2" d="M32.58,1.12H2.24A1.1,1.1,0,0,0,1.12,2.24v23H33.7v-23a1.1,1.1,0,0,0-1.12-1.12ZM22.34,14.3a.54.54,0,0,1-.17.19l-6.7,5.1a.42.42,0,0,1-.17.1l-.17,0-.14,0-.14-.05a.54.54,0,0,1-.22-.2.56.56,0,0,1-.09-.31V8.94a.56.56,0,0,1,.09-.31.55.55,0,0,1,.22-.2.67.67,0,0,1,.32-.05.87.87,0,0,1,.29.09l6.7,5.13a.56.56,0,0,1,.17.19.51.51,0,0,1,0,.51Z"/><path class="cls-3" d="M1.12,32.58A1.1,1.1,0,0,0,2.24,33.7H32.58a1.1,1.1,0,0,0,1.12-1.12V26.39H1.12Zm3.71-3a.56.56,0,0,1,.41-.17H9.86V28.16a.5.5,0,0,1,.17-.39.55.55,0,0,1,.37-.15.59.59,0,0,1,.41.15.5.5,0,0,1,.17.39v1.22H29.07a.52.52,0,0,1,.37.17.57.57,0,0,1,0,.82.52.52,0,0,1-.37.17H11v1.39a.5.5,0,0,1-.17.39.59.59,0,0,1-.41.15.55.55,0,0,1-.37-.15.5.5,0,0,1-.17-.39V30.54H5.24a.58.58,0,0,1-.41-1Z"/><path d="M5.24,30.54H9.86v1.39a.5.5,0,0,0,.17.39.55.55,0,0,0,.37.15.59.59,0,0,0,.41-.15.5.5,0,0,0,.17-.39V30.54H29.07a.52.52,0,0,0,.37-.17.57.57,0,0,0,0-.82.52.52,0,0,0-.37-.17H11V28.16a.5.5,0,0,0-.17-.39.59.59,0,0,0-.41-.15.55.55,0,0,0-.37.15.5.5,0,0,0-.17.39v1.22H5.24a.58.58,0,0,0,0,1.16Z"/><path d="M32.58,0H2.24A2.16,2.16,0,0,0,.66.66,2.16,2.16,0,0,0,0,2.24V32.58a2.16,2.16,0,0,0,.66,1.58,2.16,2.16,0,0,0,1.58.66H32.58a2.26,2.26,0,0,0,2.24-2.24V2.24A2.16,2.16,0,0,0,34.16.66,2.16,2.16,0,0,0,32.58,0ZM33.7,32.58a1.1,1.1,0,0,1-1.12,1.12H2.24a1.1,1.1,0,0,1-1.12-1.12V26.39H33.7Zm0-7.31H1.12v-23A1.1,1.1,0,0,1,2.24,1.12H32.58A1.1,1.1,0,0,1,33.7,2.24Z"/><path d="M22.17,13.6l-6.7-5.13a.87.87,0,0,0-.29-.09.67.67,0,0,0-.32.05.55.55,0,0,0-.22.2.56.56,0,0,0-.09.31v10.2a.56.56,0,0,0,.09.31.54.54,0,0,0,.22.2l.14.05.14,0,.17,0a.42.42,0,0,0,.17-.1l6.7-5.1a.54.54,0,0,0,.17-.19.51.51,0,0,0,0-.51A.56.56,0,0,0,22.17,13.6ZM15.68,18v-8l5.24,4Z"/></g></g></svg>