<svg xmlns="http://www.w3.org/2000/svg" xmlns:xlink="http://www.w3.org/1999/xlink" viewBox="0 0 32.4 35"><defs><style>.cls-1{fill:url(#linear-gradient);}.cls-2{fill:#532367;}.cls-3{fill:#932477;}.cls-4{fill:#def0f7;}.cls-5{fill:#010101;}</style><linearGradient id="linear-gradient" x1="3.12" y1="12.08" x2="24.18" y2="12.08" gradientUnits="userSpaceOnUse"><stop offset="0" stop-color="#932477"/><stop offset="1" stop-color="#532367"/></linearGradient></defs><title>Asset 3</title><g id="Layer_2" data-name="Layer 2"><g id="Layer_1-2" data-name="Layer 1"><path class="cls-1" d="M3.12,10.76,5.06,17.3l.06.19h0l.43,1.44L24.18,13.4,21.76,5.23ZM19.28,11,8.63,14.16l-.15,0a.52.52,0,0,1-.15-1L19,10a.52.52,0,0,1,.29,1Z"/><rect class="cls-2" x="23.89" y="1.49" width="4.38" height="13.8" transform="matrix(0.96, -0.28, 0.28, 0.96, -1.31, 7.77)"/><rect class="cls-3" x="1.8" y="12.88" width="1.55" height="4.73" transform="translate(-4.23 1.36) rotate(-16.53)"/><path class="cls-4" d="M27.86,3.07l2.63,8.86a6.25,6.25,0,0,0-2.63-8.86Z"/><path class="cls-5" d="M19,10,8.33,13.17a.52.52,0,0,0,.15,1l.15,0L19.28,11A.52.52,0,0,0,19,10Z"/><path class="cls-5" d="M30.86,13.17A7.25,7.25,0,0,0,27.49,1.83L27.06.37A.51.51,0,0,0,26.42,0L21.23,1.56a.52.52,0,0,0-.35.64l.6,2L2.33,9.92a.52.52,0,0,0-.35.64l.36,1.22-2,.59A.52.52,0,0,0,0,13l1.64,5.52a.52.52,0,0,0,.49.37l.15,0,2-.59.43,1.44a.52.52,0,0,0,.49.37l.15,0L15.67,17,9.57,34.31a.51.51,0,0,0,.31.66.51.51,0,0,0,.17,0,.52.52,0,0,0,.49-.34l5.4-15.34V32.19a.51.51,0,0,0,1,0V19.32l5.4,15.34a.52.52,0,0,0,.49.34A.52.52,0,0,0,23,35a.51.51,0,0,0,.31-.66L17.1,16.58l7.4-2.2.6,2a.52.52,0,0,0,.49.37l.15,0,5.19-1.54a.52.52,0,0,0,.35-.64ZM2.5,17.74,1.16,13.2l1.49-.44L4,17.3Zm3,1.2L5.12,17.5h0l-.06-.19L3.12,10.76,21.76,5.23l2.43,8.18Zm20.4-3.31L22,2.4l4.2-1.25,3.93,13.23ZM27.86,3.07a6.25,6.25,0,0,1,2.63,8.86Z"/></g></g></svg>