<svg xmlns="http://www.w3.org/2000/svg" xmlns:xlink="http://www.w3.org/1999/xlink" viewBox="0 0 17.8 34.75"><defs><style>.cls-1{fill:#d7eff5;}.cls-2{fill:url(#linear-gradient);}.cls-3{fill:url(#linear-gradient-2);}.cls-4{fill:none;stroke:#000;stroke-linecap:round;stroke-miterlimit:10;stroke-width:0.75px;}</style><linearGradient id="linear-gradient" x1="-2.27" y1="3.82" x2="20.06" y2="3.82" gradientUnits="userSpaceOnUse"><stop offset="0" stop-color="#d23937"/><stop offset="1" stop-color="#932477"/></linearGradient><linearGradient id="linear-gradient-2" x1="-2.27" y1="31.2" x2="20.06" y2="31.2" xlink:href="#linear-gradient"/></defs><title>Asset 5</title><g id="Layer_2" data-name="Layer 2"><g id="Layer_1-2" data-name="Layer 1"><rect class="cls-1" x="0.88" y="7.65" width="16.04" height="20.01"/><path class="cls-2" d="M15.08.88H2.85a1.91,1.91,0,0,0-1.39.58A1.9,1.9,0,0,0,.88,2.85V6.77h16V2.85a2,2,0,0,0-.53-1.4A1.73,1.73,0,0,0,15.08.88ZM5.5,4.28a.81.81,0,0,1-.08.16l-.17.1a.3.3,0,0,1-.3,0l-.17-.1-.1-.17a.34.34,0,0,1,0-.15.34.34,0,0,1,0-.15l.1-.18a.56.56,0,0,1,.63,0,.75.75,0,0,1,.08.16.53.53,0,0,1,0,.33Zm7.65-.15a.39.39,0,0,1-.29.13H7.77a.43.43,0,0,1-.32-.13.4.4,0,0,1-.13-.29.46.46,0,0,1,.46-.46h5.09a.4.4,0,0,1,.29.13.44.44,0,0,1,.14.32A.4.4,0,0,1,13.15,4.13Z"/><path class="cls-3" d="M.88,31.87a1.94,1.94,0,0,0,.58,1.42,1.9,1.9,0,0,0,1.39.58H15.08a1.71,1.71,0,0,0,1.31-.59,2.05,2.05,0,0,0,.53-1.42V28.53H.88Zm6.57-.7A.43.43,0,0,1,7.77,31H9.48a.4.4,0,0,1,.29.13.44.44,0,0,1,.13.32.38.38,0,0,1-.13.3.43.43,0,0,1-.29.12H7.77a.47.47,0,0,1-.33-.12.38.38,0,0,1-.13-.3A.44.44,0,0,1,7.45,31.17Z"/><path d="M7.77,31.91H9.48a.43.43,0,0,0,.29-.12.38.38,0,0,0,.13-.3.44.44,0,0,0-.13-.32A.4.4,0,0,0,9.48,31H7.77a.46.46,0,0,0-.46.46.38.38,0,0,0,.13.3A.47.47,0,0,0,7.77,31.91Z"/><path d="M5.42,3.79a.56.56,0,0,0-.63,0L4.69,4a.34.34,0,0,0,0,.15.34.34,0,0,0,0,.15l.1.17.17.1a.3.3,0,0,0,.3,0l.17-.1a.81.81,0,0,0,.08-.16.53.53,0,0,0,0-.33A.75.75,0,0,0,5.42,3.79Z"/><path d="M15.08,0H2.85a2.73,2.73,0,0,0-2,.83,2.77,2.77,0,0,0-.83,2v29a2.82,2.82,0,0,0,.83,2,2.7,2.7,0,0,0,2,.85H15.08A2.56,2.56,0,0,0,17,33.92a2.9,2.9,0,0,0,.79-2.05v-29a2.84,2.84,0,0,0-.79-2A2.58,2.58,0,0,0,15.08,0Zm1.83,31.87a2.05,2.05,0,0,1-.53,1.42,1.71,1.71,0,0,1-1.31.59H2.85a1.9,1.9,0,0,1-1.39-.58,1.94,1.94,0,0,1-.58-1.42V28.53h16Zm0-4.22H.88v-20h16Zm0-20.88H.88V2.85a1.9,1.9,0,0,1,.58-1.39A1.91,1.91,0,0,1,2.85.88H15.08a1.73,1.73,0,0,1,1.31.57,2,2,0,0,1,.53,1.4Z"/><path d="M12.86,3.38H7.77a.46.46,0,0,0-.46.46.4.4,0,0,0,.13.29.43.43,0,0,0,.32.13h5.09a.39.39,0,0,0,.29-.13.4.4,0,0,0,.14-.29.44.44,0,0,0-.14-.32A.4.4,0,0,0,12.86,3.38Z"/><line class="cls-4" x1="2.46" y1="12.49" x2="5.17" y2="9.78"/><line class="cls-4" x1="2.46" y1="15.39" x2="8.09" y2="9.76"/></g></g></svg>